SplineFontDB: 3.0
FontName: Fanwood
FullName: Fanwood
FamilyName: Fanwood
Weight: Regular
Copyright: Created by trashman with FontForge 2.0 (http://fontforge.sf.net)
UComments: "2010-10-22: Created." 
Version: 001.000
ItalicAngle: 0
UnderlinePosition: -100
UnderlineWidth: 50
Ascent: 750
Descent: 250
LayerCount: 3
Layer: 0 0 "Back"  1
Layer: 1 0 "Fore"  0
Layer: 2 0 "backup"  0
NeedsXUIDChange: 1
XUID: [1021 658 797806517 11107023]
OS2Version: 0
OS2_WeightWidthSlopeOnly: 0
OS2_UseTypoMetrics: 1
CreationTime: 1287776574
ModificationTime: 1287988775
OS2TypoAscent: 0
OS2TypoAOffset: 1
OS2TypoDescent: 0
OS2TypoDOffset: 1
OS2TypoLinegap: 0
OS2WinAscent: 0
OS2WinAOffset: 1
OS2WinDescent: 0
OS2WinDOffset: 1
HheadAscent: 0
HheadAOffset: 1
HheadDescent: 0
HheadDOffset: 1
OS2Vendor: 'PfEd'
MarkAttachClasses: 1
DEI: 91125
Encoding: UnicodeBmp
UnicodeInterp: none
NameList: Adobe Glyph List
DisplaySize: -48
AntiAlias: 1
FitToEm: 1
WinInfo: 96 12 4
BeginPrivate: 9
BlueValues 7 [-13 0]
OtherBlues 2 []
BlueScale 8 0.039625
BlueShift 1 7
BlueFuzz 1 0
StdHW 4 [24]
StemSnapH 28 [20 24 30 34 45 50 76 88 94]
StdVW 4 [68]
StemSnapV 34 [23 42 53 57 61 64 68 73 82 95 99]
EndPrivate
BeginChars: 65536 63

StartChar: a
Encoding: 97 97 0
Width: 382
VWidth: 0
Flags: W
LayerCount: 3
Fore
SplineSet
193 403 m 0x6c
 261 403 307 362 307 287 c 0x6c
 307 254 297 79 297 69 c 0
 297 61 310 34 320 34 c 0
 323 34 353 58 356 58 c 0
 362 58 369 51 369 44 c 0
 369 42 368 40 366 38 c 0
 336 16 323 8 290 -12 c 0
 286 -15 281 -16 277 -16 c 0xa2
 271 -16 265 -13 262 -9 c 0
 256 -2 250 8 243 18 c 0
 237 27 234 30 231 30 c 0
 228 30 223 26 215 20 c 0
 195 7 159 -11 121 -11 c 0
 73 -11 28 10 28 80 c 0x72
 28 173 153 203 231 221 c 0
 239 223 240 229 240 237 c 2
 239 276 l 2
 238 323 226 375 155 375 c 0
 142 375 124 372 111 358 c 0
 102 348 96 337 96 319 c 0
 96 315 97 306 97 302 c 0
 97 286 81 279 70 269 c 0
 67 267 58 260 52 260 c 0
 43 260 43 276 43 286 c 0
 43 335 74 365 112 382 c 0
 141 395 168 403 193 403 c 0x6c
235 201 m 0
 231 201 177 188 148 174 c 0
 118 160 90 136 90 101 c 0x74
 90 51 108 25 157 25 c 0
 180 25 202 33 219 43 c 0
 239 55 239 64 239 72 c 2
 241 192 l 2
 241 199 240 201 235 201 c 0
EndSplineSet
EndChar

StartChar: b
Encoding: 98 98 1
Width: 457
VWidth: 0
Flags: W
HStem: -11 24<175.514 279.022> 359 31<174.184 275.041> 689 24<11.0593 82.0612>
VStem: 77 65<-5.5 327.755> 83 81<469.998 688.994> 84 68<104.753 352.593 366.822 610.245> 363 73<97.8601 276.451>
LayerCount: 3
Fore
SplineSet
152 377 m 24xe6
 152 372 151 363 158 367 c 0
 181 380 215 390 257 390 c 0
 370 390 436 294 436 185 c 8
 436 72 336 -11 222 -11 c 0
 164 -11 124 20 123 20 c 0
 120 20 108 9 94 -6 c 0
 88 -12 77 -12 77 1 c 0xf2
 77 154 84 206 84 364 c 0xe6
 84 463 83 572 83 674 c 0
 83 681 80 689 75 689 c 0
 71 689 39 685 25 684 c 0
 13 683 11 691 11 704 c 0
 11 708 15 713 19 713 c 0
 50 715 147 728 158 728 c 0
 164 728 164 719 164 713 c 0xea
 164 707 154 508 152 377 c 24xe6
164 350 m 24xea
 157 348 150 345 150 338 c 0
 148 237 142 103 142 70 c 0xf2
 142 24 202 13 229 13 c 0
 321 13 363 107 363 191 c 0
 363 280 294 359 222 359 c 0
 199 359 186 356 164 350 c 24xea
EndSplineSet
EndChar

StartChar: c
Encoding: 99 99 2
Width: 379
VWidth: 0
Flags: W
LayerCount: 3
Fore
SplineSet
20 189 m 0
 20 330 117 401 221 401 c 0
 282 401 349 362 349 309 c 0
 349 291 342 285 330 278 c 0
 321 273 313 270 308 270 c 0
 299 270 294 279 291 288 c 0
 275 333 272 379 209 379 c 0
 122 379 85 282 85 202 c 0
 85 121 137 34 241 34 c 0
 277 34 309 45 329 53 c 0
 338 56 346 62 348 62 c 0
 352 62 359 59 359 49 c 0
 359 43 348 36 342 32 c 0
 294 2 248 -12 206 -12 c 0
 83 -12 20 81 20 189 c 0
EndSplineSet
EndChar

StartChar: d
Encoding: 100 100 3
Width: 470
VWidth: 0
Flags: W
LayerCount: 3
Fore
SplineSet
27 181 m 0
 27 283 109 388 224 388 c 0
 284 388 322 366 324 366 c 0
 327 366 327 376 327 383 c 24
 325 499 321 565 319 681 c 0
 319 687 315 691 310 691 c 0
 307 691 264 682 257 682 c 0
 251 682 247 686 245 700 c 0
 244 707 246 717 252 718 c 0
 306 725 380 734 385 734 c 0
 398 734 401 727 401 707 c 0
 401 527 396 320 396 156 c 0
 396 108 396 62 397 22 c 0
 397 17 399 11 403 11 c 0
 408 11 431 15 443 17 c 0
 456 19 457 18 457 4 c 0
 457 -9 454 -14 449 -15 c 0
 406 -21 337 -29 332 -29 c 0
 325 -29 323 -24 323 -16 c 2
 323 12 l 2
 323 24 308 18 298 12 c 0
 269 -4 240 -16 200 -16 c 0
 111 -16 27 49 27 181 c 0
324 59 m 0
 324 147 330 211 330 307 c 0
 330 326 291 360 239 360 c 0
 153 360 101 277 101 188 c 0
 101 95 155 24 249 24 c 0
 272 24 295 32 311 40 c 0
 321 45 324 49 324 59 c 0
EndSplineSet
EndChar

StartChar: e
Encoding: 101 101 4
Width: 409
VWidth: 0
Flags: W
LayerCount: 3
Fore
SplineSet
209 371 m 0
 162 371 126 327 110 279 c 0
 108 274 106 266 106 259 c 0
 106 253 107 248 115 247 c 0
 125 246 153 246 183 246 c 2
 225 246 l 2
 263 246 301 246 301 255 c 0
 301 353 250 371 209 371 c 0
29 188 m 0
 29 302 104 398 226 398 c 0
 325 398 371 330 371 246 c 2
 371 236 l 2
 371 225 295 223 288 223 c 2
 109 223 l 2
 98 223 96 204 96 190 c 0
 96 83 172 33 247 33 c 0
 291 33 325 58 340 72 c 0
 345 76 360 91 364 91 c 0
 372 91 378 85 378 79 c 0
 378 69 373 66 368 61 c 0
 332 27 277 -12 221 -12 c 0
 99 -12 29 71 29 188 c 0
EndSplineSet
EndChar

StartChar: f
Encoding: 102 102 5
Width: 316
VWidth: 0
Flags: W
LayerCount: 3
Fore
SplineSet
161 71 m 2xec
 161 36 166 25 178 25 c 2
 234 23 l 2
 246 23 248 20 248 11 c 0
 248 2 247 -2 234 -2 c 0
 215 -2 185 0 122 0 c 0
 80 0 53 -2 46 -2 c 0
 33 -2 32 3 32 14 c 0
 32 21 37 24 46 25 c 2
 80 27 l 2
 88 28 90 31 90 57 c 0
 90 77 88 144 88 172 c 2
 88 323 l 2xec
 88 336 87 337 74 337 c 2
 57 337 l 2
 41 337 38 338 38 352 c 0
 38 367 41 367 57 367 c 2
 76 367 l 2
 85 367 85 376 85 387 c 0
 85 436 80 470 80 523 c 0
 80 590 93 674 153 706 c 0
 175 718 205 730 237 730 c 0
 281 730 315 700 315 659 c 0
 315 636 276 602 262 602 c 0
 253 602 248 608 248 616 c 0
 248 653 248 698 211 698 c 0
 194 698 179 693 170 678 c 0
 155 654 154 552 154 523 c 2xf4
 154 387 l 2
 154 372 155 370 175 370 c 2
 281 370 l 2
 290 370 293 369 293 365 c 0
 293 363 292 360 290 355 c 0
 284 341 284 340 264 340 c 2
 175 340 l 2
 158 340 157 339 157 328 c 2
 161 71 l 2xec
EndSplineSet
EndChar

StartChar: g
Encoding: 103 103 6
Width: 451
VWidth: 0
Flags: W
LayerCount: 3
Fore
SplineSet
423 -75 m 0xf280
 423 -177 315 -226 211 -226 c 0
 128 -226 35 -198 35 -118 c 0xf880
 35 -64 111 -34 153 -22 c 0
 159 -20 169 -17 169 -14 c 0
 169 -12 166 -11 156 -11 c 0
 146 -11 125 -12 115 -12 c 0
 98 -12 78 -10 74 4 c 0
 67 26 61 48 61 57 c 0xf2
 61 66 68 75 78 77 c 0
 103 83 139 88 170 94 c 0
 180 96 186 97 186 99 c 0
 186 101 180 104 170 107 c 0
 116 124 54 167 54 255 c 0
 54 343 138 404 227 404 c 0
 276 404 318 376 331 361 c 0
 335 356 341 356 348 358 c 0
 359 362 404 373 418 373 c 0
 423 373 425 369 426 356 c 0
 426 352 427 345 427 340 c 0
 427 333 426 327 422 327 c 0
 414 326 385 325 370 323 c 0
 362 322 367 315 370 308 c 0xf480
 376 295 381 280 381 266 c 0xf1
 381 181 335 131 264 104 c 0
 218 86 154 76 87 57 c 0
 84 56 84 53 84 49 c 0
 84 43 86 35 91 34 c 0
 218 26 423 48 423 -75 c 0xf280
212 -203 m 0
 287 -203 369 -174 369 -102 c 0
 369 -45 273 -32 207 -32 c 0
 158 -32 78 -55 78 -121 c 0
 78 -179 152 -203 212 -203 c 0
216 377 m 0
 158 377 121 328 121 264 c 0
 121 179 171 142 216 113 c 0
 221 110 225 108 229 108 c 0
 234 108 237 110 243 115 c 0
 280 144 316 184 316 265 c 0xf5
 316 324 281 377 216 377 c 0
EndSplineSet
EndChar

StartChar: h
Encoding: 104 104 7
Width: 509
VWidth: 0
Flags: HWO
HStem: -2 26<29.0037 88.0971 164.906 219.992 289.004 347.195 418.341 470.992> 354 36<212.963 316.064> 690 27<23.0036 88.4947>
VStem: 89 86<463.984 689.998> 89 70<26.0468 336.041 352.004 621.186> 352 66<26.1275 319.929>
LayerCount: 3
Fore
SplineSet
89 669 m 2xf4
 89 687 89 690 79 690 c 0
 74 690 47 688 34 687 c 0
 28 687 23 688 23 704 c 0
 23 712 26 717 33 717 c 0
 47 718 161 731 167 731 c 0
 174 731 176 727 175 715 c 0xf4
 173 697 159 455 159 386 c 2
 159 371 l 2
 159 357 159 352 164 352 c 0
 166 352 169 353 174 355 c 0
 213 372 244 390 302 390 c 0
 394 390 421 336 421 248 c 0
 421 189 418 118 418 66 c 0
 418 42 418 24 421 24 c 2
 457 24 l 2
 469 24 471 21 471 12 c 0
 471 3 470 -2 457 -2 c 0
 438 -2 415 0 386 0 c 0
 361 0 332 -2 302 -2 c 0
 289 -2 289 1 289 12 c 0
 289 21 294 26 304 26 c 2
 344 26 l 2
 352 26 352 185 352 202 c 2
 352 215 l 2
 352 286 336 354 268 354 c 0
 225 354 192 342 174 333 c 0
 161 326 159 325 159 318 c 2
 159 158 l 2
 159 89 162 26 170 26 c 2
 206 26 l 2
 218 26 220 21 220 12 c 0
 220 3 219 -2 206 -2 c 0
 187 -2 155 0 126 0 c 0
 101 0 72 -2 42 -2 c 0
 29 -2 29 1 29 12 c 0
 29 21 34 24 44 24 c 2
 74 24 l 2
 85 24 89 33 89 47 c 2
 89 81 l 2xec
 89 138 92 243 92 279 c 2
 89 669 l 2xf4
EndSplineSet
EndChar

StartChar: i
Encoding: 105 105 8
Width: 232
VWidth: 0
Flags: W
LayerCount: 3
Fore
SplineSet
93 51 m 2xe8
 93 221 l 2
 93 262 93 300 90 347 c 0
 89 362 88 363 78 362 c 0
 72 361 40 357 36 357 c 0
 29 357 25 360 25 368 c 0
 25 377 29 381 43 382 c 0
 84 386 151 396 156 396 c 0
 163 396 164 390 164 375 c 0
 163 322 160 279 160 226 c 2
 160 51 l 2
 160 28 161 26 171 26 c 2
 198 26 l 2
 210 26 212 21 212 12 c 0
 212 3 211 -2 198 -2 c 0
 179 -2 151 0 126 0 c 0
 101 0 61 -2 42 -2 c 0
 29 -2 29 1 29 12 c 0
 29 21 34 24 44 24 c 2
 82 24 l 2
 93 24 93 31 93 51 c 2xe8
179 570 m 0xf0
 179 535 148 517 122 517 c 0
 102 517 82 530 82 554 c 0
 82 589 116 607 139 607 c 0
 159 607 179 594 179 570 c 0xf0
EndSplineSet
EndChar

StartChar: j
Encoding: 106 106 9
Width: 268
VWidth: 0
Flags: W
LayerCount: 3
Fore
SplineSet
184 600 m 0xf0
 184 564 151 545 124 545 c 0
 103 545 83 559 83 584 c 0
 83 620 119 639 143 639 c 0
 164 639 184 625 184 600 c 0xf0
126 115 m 2xe8
 126 339 l 2
 126 352 125 363 117 363 c 0
 110 363 62 357 58 357 c 0
 51 357 46 361 46 369 c 0
 46 378 50 385 60 386 c 0
 103 389 185 397 192 398 c 1
 193 398 l 2
 199 398 200 389 200 375 c 0
 200 355 198 279 198 226 c 2
 198 51 l 2
 198 28 196 -90 153 -162 c 0
 138 -187 110 -196 84 -209 c 0
 57 -222 35 -233 24 -233 c 0
 16 -233 9 -224 9 -215 c 0
 9 -204 25 -154 51 -154 c 0
 66 -154 100 -161 110 -161 c 0
 133 -161 139 -151 139 -135 c 0
 139 -73 126 -57 126 115 c 2xe8
EndSplineSet
EndChar

StartChar: k
Encoding: 107 107 10
Width: 446
VWidth: 0
Flags: W
LayerCount: 3
Fore
SplineSet
420 21 m 0xf8
 432 21 436 19 436 10 c 0
 436 1 435 -2 422 -2 c 0
 409 -2 382 0 365 0 c 0
 340 0 312 -2 295 -2 c 0
 282 -2 282 -1 282 10 c 0
 282 19 285 20 295 20 c 2
 309 20 l 2
 326 20 316 32 310 40 c 2
 221 161 l 2
 213 171 197 193 170 193 c 0
 159 193 159 189 159 177 c 2
 159 49 l 2
 159 26 160 22 170 22 c 2
 192 22 l 2
 204 22 206 19 206 10 c 0
 206 1 205 -2 192 -2 c 0
 179 -2 151 0 130 0 c 0
 105 0 65 -2 48 -2 c 0
 35 -2 35 -1 35 10 c 0
 35 19 38 22 48 22 c 2
 85 22 l 2
 96 22 97 29 97 49 c 0xf4
 97 407 95 478 94 675 c 0
 94 692 89 692 79 692 c 0
 73 692 46 687 36 687 c 0
 24 687 22 693 22 707 c 0
 22 715 27 722 38 722 c 0
 78 723 165 731 171 731 c 0
 178 731 179 729 179 717 c 2
 179 717 161 267 161 242 c 2
 161 233 l 2
 161 216 165 213 177 213 c 2
 199 213 l 2
 209 213 214 223 221 232 c 0
 249 269 273 305 296 346 c 0
 303 359 299 365 291 365 c 2
 274 365 l 2
 262 365 260 365 260 376 c 0
 260 388 261 388 274 388 c 2
 318 388 l 2
 349 388 382 389 391 389 c 0
 399 389 403 387 403 378 c 0
 403 364 401 364 389 364 c 2
 363 364 l 2
 348 364 334 346 325 334 c 2
 256 245 l 2
 249 236 245 232 245 228 c 0
 245 224 248 220 254 213 c 2
 389 40 l 2
 398 28 404 21 420 21 c 0xf8
EndSplineSet
EndChar

StartChar: z
Encoding: 122 122 11
Width: 187
VWidth: 0
Flags: W
HStem: 120 96<54.332 133.668>
VStem: 46 96<128.332 207.668>
LayerCount: 3
Fore
SplineSet
46 168 m 0
 46 194 68 216 94 216 c 0
 120 216 142 194 142 168 c 0
 142 142 120 120 94 120 c 0
 68 120 46 142 46 168 c 0
EndSplineSet
EndChar

StartChar: l
Encoding: 108 108 12
Width: 227
VWidth: 0
Flags: W
LayerCount: 3
Fore
SplineSet
26 717 m 0xd0
 65 718 138 727 144 727 c 0
 151 727 152 724 152 712 c 2xb0
 149 49 l 6
 149 26 150 21 160 21 c 6
 193 21 l 2
 205 21 207 19 207 10 c 0
 207 1 206 -2 193 -2 c 0
 175 -2 145 0 116 0 c 0
 91 0 49 -2 32 -2 c 0
 19 -2 19 -1 19 10 c 0
 19 19 22 21 32 21 c 2
 72 21 l 2
 83 21 84 29 84 49 c 0xa8
 84 407 80 474 76 670 c 0
 76 687 75 690 65 690 c 0
 60 690 32 686 28 686 c 0
 14 686 10 687 10 703 c 0
 10 711 15 717 26 717 c 0xd0
EndSplineSet
EndChar

StartChar: m
Encoding: 109 109 13
Width: 729
VWidth: 0
Flags: W
LayerCount: 3
Fore
SplineSet
89 331 m 2
 89 349 86 353 77 353 c 0
 72 353 38 350 33 350 c 0
 27 350 25 356 25 363 c 0
 25 369 30 377 35 377 c 0
 49 378 142 385 148 385 c 0
 155 385 156 381 155 369 c 2
 155 369 155 353 154 342 c 0
 153 322 162 331 171 338 c 0
 201 359 258 390 307 390 c 0
 343 390 369 376 386 350 c 0
 397 334 392 334 408 344 c 0
 439 364 490 384 528 384 c 0
 618 384 646 326 646 240 c 0
 646 156 642 83 642 35 c 0
 642 28 643 24 647 24 c 2
 682 24 l 2
 694 24 696 21 696 12 c 0
 696 3 695 -2 682 -2 c 0
 663 -2 642 0 613 0 c 0
 588 0 561 -2 531 -2 c 0
 518 -2 518 1 518 12 c 0
 518 21 523 24 533 24 c 2
 568 24 l 2
 577 24 577 169 577 216 c 0
 577 283 571 348 498 348 c 0
 447 348 398 319 398 316 c 0
 400 294 403 265 403 240 c 2
 401 66 l 2
 401 42 401 24 404 24 c 2
 435 24 l 2
 447 24 449 21 449 12 c 0
 449 3 448 -2 435 -2 c 0
 416 -2 400 0 371 0 c 0
 346 0 329 -2 299 -2 c 0
 286 -2 283 1 283 12 c 0
 283 21 286 24 296 24 c 2
 332 24 l 2
 338 24 338 202 338 216 c 0
 338 284 332 349 268 349 c 0
 225 349 195 333 174 317 c 0
 162 308 161 305 160 297 c 0
 157 254 157 213 157 174 c 2
 157 68 l 2
 157 29 157 24 176 24 c 2
 197 24 l 2
 209 24 211 21 211 12 c 0
 211 3 210 -2 197 -2 c 0
 178 -2 151 0 126 0 c 0
 101 0 59 -2 43 -2 c 0
 35 -2 30 0 30 11 c 0
 30 20 32 22 42 22 c 2
 75 22 l 2
 84 22 86 38 88 57 c 0
 90 77 90 118 90 163 c 2
 89 331 l 2
EndSplineSet
EndChar

StartChar: n
Encoding: 110 110 14
Width: 501
VWidth: 0
Flags: W
LayerCount: 3
Fore
SplineSet
298 390 m 0
 390 390 421 328 421 242 c 0
 421 183 417 118 417 66 c 0
 417 42 418 24 421 24 c 2
 457 24 l 2
 469 24 471 21 471 12 c 0
 471 3 470 -2 457 -2 c 0
 438 -2 415 0 386 0 c 0
 361 0 332 -2 302 -2 c 0
 289 -2 289 1 289 12 c 0
 289 21 294 24 304 24 c 2
 344 24 l 2
 353 24 355 196 355 218 c 0
 355 289 338 350 268 350 c 0
 225 350 198 334 174 317 c 0
 161 308 161 303 161 295 c 0
 161 215 155 146 155 82 c 2
 155 70 l 2
 155 39 156 24 177 24 c 2
 201 24 l 2
 213 24 215 21 215 12 c 0
 215 3 214 -2 201 -2 c 0
 182 -2 151 0 126 0 c 0
 101 0 56 -2 40 -2 c 0
 32 -2 27 0 27 11 c 0
 27 20 29 24 39 24 c 2
 75 24 l 2
 84 24 85 38 87 57 c 0
 90 85 93 161 93 220 c 0
 93 252 93 299 92 326 c 0xf4
 91 347 89 352 79 352 c 0
 74 352 47 350 34 349 c 0
 29 349 25 349 25 358 c 0
 25 361 27 377 35 378 c 0
 49 379 148 386 154 386 c 0
 161 386 162 383 161 371 c 2xf4
 161 371 160 355 160 344 c 0
 160 339 160 332 162 332 c 0
 164 332 170 337 174 340 c 0
 203 360 249 390 298 390 c 0
EndSplineSet
EndChar

StartChar: o
Encoding: 111 111 15
Width: 439
VWidth: 0
Flags: W
LayerCount: 3
Fore
SplineSet
227 375 m 0
 134 375 106 272 106 184 c 0
 106 105 143 9 222 9 c 0
 314 9 342 117 342 207 c 0
 342 285 311 375 227 375 c 0
234 398 m 0
 336 398 412 310 412 200 c 0
 412 77 324 -13 218 -13 c 0
 111 -13 37 83 37 192 c 0
 37 310 116 398 234 398 c 0
EndSplineSet
EndChar

StartChar: p
Encoding: 112 112 16
Width: 187
VWidth: 0
Flags: W
LayerCount: 3
Fore
SplineSet
46 168 m 4
 46 194 68 216 94 216 c 4
 120 216 142 194 142 168 c 4
 142 142 120 120 94 120 c 4
 68 120 46 142 46 168 c 4
EndSplineSet
EndChar

StartChar: q
Encoding: 113 113 17
Width: 187
VWidth: 0
Flags: W
LayerCount: 3
Fore
SplineSet
46 168 m 4
 46 194 68 216 94 216 c 4
 120 216 142 194 142 168 c 4
 142 142 120 120 94 120 c 4
 68 120 46 142 46 168 c 4
EndSplineSet
EndChar

StartChar: r
Encoding: 114 114 18
Width: 341
VWidth: 0
Flags: W
LayerCount: 3
Fore
SplineSet
168 71 m 2
 168 36 173 25 185 25 c 2
 239 23 l 2
 251 23 253 20 253 11 c 0
 253 2 252 -2 239 -2 c 0
 220 -2 195 0 132 0 c 0
 90 0 63 -2 56 -2 c 0
 43 -2 43 2 42 12 c 0
 41 21 46 22 56 23 c 2
 91 25 l 2
 99 26 100 60 100 103 c 2
 100 325 l 2
 100 345 96 349 81 349 c 2
 48 347 l 2
 38 346 35 349 35 360 c 0
 35 372 37 370 49 371 c 0
 85 373 154 378 159 378 c 0
 165 378 168 377 168 369 c 2
 165 312 l 2
 164 296 164 297 171 312 c 0
 194 366 241 398 264 398 c 0
 286 398 296 385 306 374 c 0
 316 362 323 351 323 350 c 0
 323 344 308 327 295 318 c 0
 290 314 284 313 280 313 c 0
 274 313 270 316 265 320 c 0
 252 330 240 345 224 345 c 0
 196 345 168 286 168 216 c 2
 168 71 l 2
EndSplineSet
EndChar

StartChar: s
Encoding: 115 115 19
Width: 187
VWidth: 0
Flags: W
LayerCount: 3
Fore
SplineSet
46 168 m 4
 46 194 68 216 94 216 c 4
 120 216 142 194 142 168 c 4
 142 142 120 120 94 120 c 4
 68 120 46 142 46 168 c 4
EndSplineSet
EndChar

StartChar: t
Encoding: 116 116 20
Width: 275
VWidth: 0
Flags: HW
HStem: -7 47<137 222.209> 348 30<135.424 245.487>
VStem: 67 67<57.3815 340.95>
LayerCount: 3
Fore
SplineSet
142 57 m 0
 153 44 173 40 194 40 c 0
 206 40 221 43 229 46 c 0
 239 49 245 52 248 52 c 0
 251 52 257 47 257 38 c 0
 257 29 215 9 177 -2 c 0
 163 -6 150 -7 137 -7 c 0
 94 -7 67 12 67 60 c 2
 67 270 l 2
 67 307 67 341 63 341 c 2
 31 341 l 2
 24 341 22 343 22 345 c 0
 22 348 23 353 26 356 c 0
 42 375 86 437 118 487 c 0
 121 492 129 497 134 497 c 0
 139 497 145 493 145 483 c 0
 145 480 134 409 134 393 c 0
 134 384 137 378 146 378 c 2
 237 378 l 2
 249 378 249 375 246 364 c 0
 242 351 242 348 231 348 c 2
 148 348 l 2
 136 348 134 332 134 313 c 2
 134 94 l 2
 134 82 135 65 142 57 c 0
EndSplineSet
EndChar

StartChar: u
Encoding: 117 117 21
Width: 187
VWidth: 0
Flags: W
HStem: 120 96<54.332 133.668>
VStem: 46 96<128.332 207.668>
LayerCount: 3
Fore
SplineSet
46 168 m 4
 46 194 68 216 94 216 c 4
 120 216 142 194 142 168 c 4
 142 142 120 120 94 120 c 4
 68 120 46 142 46 168 c 4
EndSplineSet
EndChar

StartChar: v
Encoding: 118 118 22
Width: 187
VWidth: 0
Flags: W
HStem: 120 96<54.332 133.668>
VStem: 46 96<128.332 207.668>
LayerCount: 3
Fore
SplineSet
46 168 m 4
 46 194 68 216 94 216 c 4
 120 216 142 194 142 168 c 4
 142 142 120 120 94 120 c 4
 68 120 46 142 46 168 c 4
EndSplineSet
EndChar

StartChar: w
Encoding: 119 119 23
Width: 187
VWidth: 0
Flags: W
HStem: 120 96<54.332 133.668>
VStem: 46 96<128.332 207.668>
LayerCount: 3
Fore
SplineSet
46 168 m 4
 46 194 68 216 94 216 c 4
 120 216 142 194 142 168 c 4
 142 142 120 120 94 120 c 4
 68 120 46 142 46 168 c 4
EndSplineSet
EndChar

StartChar: x
Encoding: 120 120 24
Width: 187
VWidth: 0
Flags: W
HStem: 120 96<54.332 133.668>
VStem: 46 96<128.332 207.668>
LayerCount: 3
Fore
SplineSet
46 168 m 4
 46 194 68 216 94 216 c 4
 120 216 142 194 142 168 c 4
 142 142 120 120 94 120 c 4
 68 120 46 142 46 168 c 4
EndSplineSet
EndChar

StartChar: y
Encoding: 121 121 25
Width: 187
VWidth: 0
Flags: W
HStem: 120 96<54.332 133.668>
VStem: 46 96<128.332 207.668>
LayerCount: 3
Fore
SplineSet
46 168 m 4
 46 194 68 216 94 216 c 4
 120 216 142 194 142 168 c 4
 142 142 120 120 94 120 c 4
 68 120 46 142 46 168 c 4
EndSplineSet
EndChar

StartChar: zero
Encoding: 48 48 52
Width: 187
VWidth: 0
Flags: W
HStem: 120 96<54.332 133.668>
VStem: 46 96<128.332 207.668>
LayerCount: 3
Fore
SplineSet
46 168 m 0
 46 194 68 216 94 216 c 0
 120 216 142 194 142 168 c 0
 142 142 120 120 94 120 c 0
 68 120 46 142 46 168 c 0
EndSplineSet
EndChar

StartChar: one
Encoding: 49 49 53
Width: 187
VWidth: 0
Flags: W
HStem: 120 96<54.332 133.668>
VStem: 46 96<128.332 207.668>
LayerCount: 3
Fore
SplineSet
46 168 m 0
 46 194 68 216 94 216 c 0
 120 216 142 194 142 168 c 0
 142 142 120 120 94 120 c 0
 68 120 46 142 46 168 c 0
EndSplineSet
EndChar

StartChar: two
Encoding: 50 50 54
Width: 187
VWidth: 0
Flags: W
HStem: 120 96<54.332 133.668>
VStem: 46 96<128.332 207.668>
LayerCount: 3
Fore
SplineSet
46 168 m 0
 46 194 68 216 94 216 c 0
 120 216 142 194 142 168 c 0
 142 142 120 120 94 120 c 0
 68 120 46 142 46 168 c 0
EndSplineSet
EndChar

StartChar: three
Encoding: 51 51 55
Width: 187
VWidth: 0
Flags: W
HStem: 120 96<54.332 133.668>
VStem: 46 96<128.332 207.668>
LayerCount: 3
Fore
SplineSet
46 168 m 0
 46 194 68 216 94 216 c 0
 120 216 142 194 142 168 c 0
 142 142 120 120 94 120 c 0
 68 120 46 142 46 168 c 0
EndSplineSet
EndChar

StartChar: four
Encoding: 52 52 56
Width: 187
VWidth: 0
Flags: W
HStem: 120 96<54.332 133.668>
VStem: 46 96<128.332 207.668>
LayerCount: 3
Fore
SplineSet
46 168 m 0
 46 194 68 216 94 216 c 0
 120 216 142 194 142 168 c 0
 142 142 120 120 94 120 c 0
 68 120 46 142 46 168 c 0
EndSplineSet
EndChar

StartChar: five
Encoding: 53 53 57
Width: 187
VWidth: 0
Flags: W
HStem: 120 96<54.332 133.668>
VStem: 46 96<128.332 207.668>
LayerCount: 3
Fore
SplineSet
46 168 m 0
 46 194 68 216 94 216 c 0
 120 216 142 194 142 168 c 0
 142 142 120 120 94 120 c 0
 68 120 46 142 46 168 c 0
EndSplineSet
EndChar

StartChar: six
Encoding: 54 54 58
Width: 187
VWidth: 0
Flags: W
HStem: 120 96<54.332 133.668>
VStem: 46 96<128.332 207.668>
LayerCount: 3
Fore
SplineSet
46 168 m 0
 46 194 68 216 94 216 c 0
 120 216 142 194 142 168 c 0
 142 142 120 120 94 120 c 0
 68 120 46 142 46 168 c 0
EndSplineSet
EndChar

StartChar: seven
Encoding: 55 55 59
Width: 187
VWidth: 0
Flags: W
HStem: 120 96<54.332 133.668>
VStem: 46 96<128.332 207.668>
LayerCount: 3
Fore
SplineSet
46 168 m 0
 46 194 68 216 94 216 c 0
 120 216 142 194 142 168 c 0
 142 142 120 120 94 120 c 0
 68 120 46 142 46 168 c 0
EndSplineSet
EndChar

StartChar: eight
Encoding: 56 56 60
Width: 187
VWidth: 0
Flags: W
HStem: 120 96<54.332 133.668>
VStem: 46 96<128.332 207.668>
LayerCount: 3
Fore
SplineSet
46 168 m 0
 46 194 68 216 94 216 c 0
 120 216 142 194 142 168 c 0
 142 142 120 120 94 120 c 0
 68 120 46 142 46 168 c 0
EndSplineSet
EndChar

StartChar: nine
Encoding: 57 57 61
Width: 187
VWidth: 0
Flags: W
HStem: 120 96<54.332 133.668>
VStem: 46 96<128.332 207.668>
LayerCount: 3
Fore
SplineSet
46 168 m 0
 46 194 68 216 94 216 c 0
 120 216 142 194 142 168 c 0
 142 142 120 120 94 120 c 0
 68 120 46 142 46 168 c 0
EndSplineSet
EndChar

